<svg xmlns="http://www.w3.org/2000/svg" viewBox="0.6 1.06 58.92 18.94">
	<path d="M 2.26 1.32 L 2.26 18.32 L 3.72 18.32 L 3.72 20 L 0.6 20 L 0.6 1.32 L 2.26 1.32 Z M 9.7 3.36 L 9.7 17.7 Q 9.7 20 7.46 20 L 8.34 20 L 7.16 20 Q 5.96 20 5.44 19.39 T 4.92 17.7 L 4.92 3.36 Q 4.92 2.26 5.44 1.66 T 7.16 1.06 L 8.14 1.06 L 7.46 1.06 Q 9.7 1.06 9.7 3.36 Z M 8.04 3.58 Q 8.04 3.18 7.88 2.95 T 7.3 2.72 T 6.73 2.95 T 6.58 3.58 L 6.58 17.48 Q 6.58 17.88 6.73 18.11 T 7.3 18.34 T 7.88 18.11 T 8.04 17.48 L 8.04 3.58 Z M 12.8 8.22 Q 13.04 8.82 13.84 9.92 Q 14.64 11.04 15 11.66 T 15.52 12.95 T 15.68 14.66 L 15.68 17.7 Q 15.68 20 13.44 20 L 13.14 20 Q 11.94 20 11.42 19.39 T 10.9 17.7 L 10.9 13.04 L 12.56 13.04 L 12.56 17.48 Q 12.56 17.88 12.71 18.11 T 13.28 18.34 T 13.86 18.11 T 14.02 17.48 L 14.02 14.42 Q 14.02 13.5 13.77 12.92 T 12.72 11.22 Q 11.92 10.12 11.56 9.48 T 11.05 8.16 T 10.9 6.44 L 10.9 3.36 Q 10.9 2.26 11.42 1.66 T 13.14 1.06 L 13.44 1.06 Q 15.68 1.06 15.68 3.36 L 15.68 8.06 L 14.02 8.06 L 14.02 3.58 Q 14.02 3.18 13.86 2.95 T 13.28 2.72 T 12.71 2.95 T 12.56 3.58 L 12.56 6.66 Q 12.56 7.62 12.8 8.22 Z M 21.68 3.64 L 21.68 6.44 Q 21.68 7.48 21.52 8.16 T 21.01 9.47 T 19.86 11.22 Q 19.04 12.34 18.79 12.92 T 18.54 14.42 L 18.54 20 L 16.88 20 L 16.88 1.32 L 19.44 1.32 Q 21.68 1.32 21.68 3.64 Z M 18.54 2.98 L 18.54 10.18 Q 18.72 9.94 18.74 9.92 Q 19.54 8.82 19.78 8.22 T 20.02 6.66 L 20.02 3.84 Q 20.02 3.44 19.86 3.21 T 19.28 2.98 L 18.54 2.98 Z M 22.06 20 L 23.04 1.32 L 25.86 1.32 L 26.84 20 L 25.3 20 L 25.1 16.1 L 24.82 16.5 Q 24.3 17.22 24.06 17.66 T 23.74 18.51 T 23.62 19.62 L 23.6 20 L 22.06 20 Z M 24.7 13.52 Q 24.88 13.02 24.88 12.1 L 24.44 3.82 L 23.86 14.96 Q 24.52 14.02 24.7 13.52 Z M 32.82 13 L 32.82 17.7 Q 32.82 20 30.58 20 L 30.28 20 Q 29.08 20 28.56 19.39 T 28.04 17.7 L 28.04 3.36 Q 28.04 2.26 28.56 1.66 T 30.28 1.06 L 30.58 1.06 Q 32.82 1.06 32.82 3.36 L 32.82 8.06 L 31.16 8.06 L 31.16 3.58 Q 31.16 3.18 31 2.95 T 30.42 2.72 T 29.85 2.95 T 29.7 3.58 L 29.7 17.48 Q 29.7 17.88 29.85 18.11 T 30.42 18.34 T 31 18.11 T 31.16 17.48 L 31.16 13 L 32.82 13 Z M 38.8 13 L 38.8 17.7 Q 38.8 20 36.56 20 L 36.26 20 Q 35.06 20 34.54 19.39 T 34.02 17.7 L 34.02 3.36 Q 34.02 2.26 34.54 1.66 T 36.26 1.06 L 36.56 1.06 Q 38.8 1.06 38.8 3.36 L 38.8 8.06 L 37.14 8.06 L 37.14 3.58 Q 37.14 3.18 36.98 2.95 T 36.4 2.72 T 35.83 2.95 T 35.68 3.58 L 35.68 17.48 Q 35.68 17.88 35.83 18.11 T 36.4 18.34 T 36.98 18.11 T 37.14 17.48 L 37.14 13 L 38.8 13 Z M 39.92 20 L 40.9 1.32 L 43.72 1.32 L 44.7 20 L 43.16 20 L 42.96 16.1 L 42.68 16.5 Q 42.16 17.22 41.92 17.66 T 41.6 18.51 T 41.48 19.62 L 41.46 20 L 39.92 20 Z M 42.56 13.52 Q 42.74 13.02 42.74 12.1 L 42.3 3.82 L 41.72 14.96 Q 42.38 14.02 42.56 13.52 Z M 50.68 6.52 Q 50.68 7.7 50.47 8.44 T 49.68 10.06 Q 50.68 10.58 50.68 12.12 L 50.68 17.7 Q 50.68 20 48.44 20 L 45.9 20 L 45.9 1.32 L 48.44 1.32 Q 50.68 1.32 50.68 3.64 L 50.68 6.52 Z M 48.28 18.34 Q 48.72 18.34 48.87 18.11 T 49.02 17.48 L 49.02 12.34 Q 49.02 12.02 48.94 11.82 T 48.64 11.54 Q 47.98 12.48 47.77 13.05 T 47.56 14.54 L 47.56 18.34 L 48.28 18.34 Z M 49.02 3.84 Q 49.02 3.44 48.87 3.21 T 48.28 2.98 L 47.56 2.98 L 47.56 10.18 L 47.72 9.96 Q 48.52 8.86 48.77 8.27 T 49.02 6.76 L 49.02 3.84 Z M 53.54 1.32 L 53.54 20 L 51.88 20 L 51.88 1.32 L 53.54 1.32 Z M 59.52 2.98 L 57.96 2.98 L 57.96 20 L 56.3 20 L 56.3 2.98 L 54.74 2.98 L 54.74 1.32 L 59.52 1.32 L 59.52 2.98 Z" fill="#003ffc"/>
</svg>